<?xml version="1.0" encoding="utf-8"?>

<!DOCTYPE svg PUBLIC "-//W3C//DTD SVG 1.1//EN" "http://www.w3.org/Graphics/SVG/1.1/DTD/svg11.dtd">
<svg version="1.1" id="Layer_1" xmlns="http://www.w3.org/2000/svg" xmlns:xlink="http://www.w3.org/1999/xlink" x="0px" y="0px"
	 viewBox="0 0 1315 1242" enable-background="new 0 0 1315 1242" xml:space="preserve">
<g>
	<path fill="none" d="M656.4441,477.7736c-5.4502-4.67-10.6001-9.72-16.03-14.36c-2.5-3.02-5.3101-5.7599-8.0901-8.52l0.01-0.17
		c-11.71-12.53-21.8101-26.45-30.8801-40.98c-0.98-1.6799-1.9399-3.3799-2.8999-5.0599c-3.95,0.6-7.8701,1.2999-11.8,1.9701
		c-1.4399,0.2599-2.8398,0.6399-4.23,1.0399c-8.3799,0.91-16.5701,3.27-24.95,4.35c-1.99,6.88-4.8599,13.46-7.22,20.2
		c-1.23,2.26-2.27,4.61-3.26,6.99c-3.01,5.94-6.01,11.89-9.4199,17.63c-0.3801,0.61-1.7751,2.743-1.8901,2.76
		c-2.71,4.95-6.2,9.4-9.1699,14.19C569.894,477.8936,613.1741,477.9636,656.4441,477.7736z"/>
	<path fill="none" d="M519.0439,801.8936c1.76,0,3.54,0.01,5.3101,0.03c0.02-74.27,0.02-148.54,0.01-222.81
		c-1.8-0.0099-3.5901-0.02-5.3701-0.0099C519.064,653.3635,518.9641,727.6335,519.0439,801.8936z"/>
	<path fill="none" d="M514.394,579.0635l-0.6001,0.01c-1.76,0.02-3.51,0.1-5.24,0.39c0.3501,19.44,0.0601,38.89,0.1499,58.33
		c-0.0198,54.7,0.0601,109.4-0.0298,164.09c1.3398-0.01,2.6799-0.01,4.0298-0.01l1.2302,0.31c0.48-1.12,0.6899-2.27,0.6499-3.47
		C514.324,725.5035,514.7639,652.2736,514.394,579.0635z"/>
	<path fill="none" d="M503.624,578.9736c-1.77,0.06-3.52,0.14-5.28,0.19c0.1099,74.2599,0.01,148.52,0.05,222.78l1.47-0.06
		c0.48-0.01,1.4299-0.03,1.9099-0.05l1.4001,0.43c0.3298-1.15,0.49-2.31,0.5-3.49
		C503.594,725.5135,503.7039,652.2435,503.624,578.9736z"/>
	<path fill="none" d="M568.5239,746.7736c0-32,0.01-64,0-96c-0.1399-23.73,0.3301-47.48-0.26-71.21l0.03-0.42
		c-1.74,0-3.48,0.01-5.21,0.01l0.03,0.33c-0.52,17.4-0.1699,34.82-0.28,52.23c-0.01,53.7,0.01,107.4,0.01,161.1
		c-0.01,3.11-0.1699,6.25,0.3701,9.35l1.52-0.3l1.96,0.04l1.5498,0.04C568.9141,783.5735,568.324,765.1636,568.5239,746.7736z"/>
	<path fill="none" d="M488.0239,579.1235c0.04,74.16-0.0598,148.32,0.05,222.48c0.5,0.1,1.51,0.31,2.01,0.42
		c0.3201,0,0.96,0.02,1.28,0.03c0.46-0.18,1.3701-0.55,1.8301-0.73c0.1899-74.06,0.0098-148.14,0.0898-222.2H488.0239z"/>
	<path fill="none" d="M547.594,578.9636c-1.76,0.05-3.52,0.15-5.27,0.36c0.27,74.2,0.0901,148.4,0.0901,222.59
		c1.4399-0.02,2.8799-0.03,4.3298-0.03l0.9702-0.02C547.574,727.5635,547.824,653.2635,547.594,578.9636z"/>
	<path fill="none" d="M558.4241,579.0735l-0.6501,0.02c-1.78,0.03-3.5701,0-5.28,0.5c0.5,5.36,0.1702,10.75,0.26,16.13
		c-0.0701,68.72,0.1501,137.44-0.1099,206.16c1.3499-0.01,2.71,0,4.0701,0.01l1.2598,0.13c0.3101-1.74,0.53-3.51,0.5701-5.26
		C558.4241,724.1935,558.6641,651.6335,558.4241,579.0735z"/>
	<path fill="none" d="M461.344,579.2236c-29.6499-0.09-59.3201-0.1-88.9799,0c0.1399,74.24,0.04,148.48,0.05,222.71
		c0.52-0.04,1.5701-0.14,2.0999-0.19c0.49,0.08,1.4702,0.23,1.96,0.3l1.1602-0.1201c0.05-29.59-0.1401-59.18,0.1001-88.77
		c20.7397,0.2,41.4799,0,62.2299,0.11c0.0298-1.63,0.0898-3.25,0.1599-4.86c-20.8-0.6-41.6398-0.13-62.4599-0.24
		c0.1399-1.77-0.1602-3.62,0.3999-5.31c20.6501,0.2599,41.31,0.02,61.9599,0.12c-0.03-1.7401-0.0398-3.46-0.05-5.18l-0.8699,0.18
		c-5.8-0.36-11.6001-0.09-17.3899-0.17c-14.7102,0.18-29.4401-0.38-44.1201,0.28c-0.05-1.76,0-3.51,0.02-5.25
		c20.79,0.07,41.57-0.03,62.3598,0.05c0-1.75,0.0103-3.48,0.03-5.21c-17.4299-0.02-34.8599-0.0099-52.2897-0.0099
		c-3.3701,0.0099-6.75-0.1801-10.0901,0.3199c0.05-1.81,0.0701-3.62,0.04-5.41c20.78,0.09,41.57-0.03,62.3498,0.06
		c-0.01-1.77-0.01-3.54,0-5.3c-20.8398,0.13-41.6899-0.15-62.52,0.14c0.4001-1.72,0.23-3.4901,0.2402-5.22
		c20.75,0.11,41.4999-0.03,62.2597,0.06c-0.0098-1.69,0-3.38,0.03-5.05c-20.75-0.22-41.4999-0.12-62.2499-0.05l-0.24-0.85
		c0.1301-13.5699,0.02-27.14,0.05-40.71c26.3898-0.03,52.79-0.05,79.1799,0c1.7202-0.03,3.4399-0.29,5.1401-0.6l-0.49-1.57
		c0.1299-0.39,0.3799-1.15,0.5-1.54l0.01-1.44c-2.7002-0.53-5.4702-0.38-8.2002-0.37c-25.3398,0.04-50.6899-0.04-76.0297,0.04
		c0.02-1.75,0.0098-3.5,0.1499-5.23c27.9699,0.16,55.9399,0,83.9099,0.08l-0.0898-1.38c0-1.26,0-2.52,0.01-3.76
		c-27.99-0.04-55.99-0.06-83.9799,0c0.02-1.7-0.02-3.4,0.1799-5.08c27.9099,0.14,55.8298-0.0099,83.7399,0.07
		c0-1.72,0.02-3.44,0.05-5.14l-0.78,0.01c-27.7,0.05-55.3999-0.01-83.09,0.03c-0.1199-1.74-0.0901-3.48-0.0798-5.21
		c27.9897,0.03,55.9799-0.02,83.9699,0.03c-0.02-1.25-0.04-2.5-0.05-3.73l0.1699-1.4c-28.1199,0.11-56.25-0.13-84.3698,0.12
		c0.47-1.71,0.26-3.52,0.3599-5.26c28.0099-0.14,56.02,0.17,84.02-0.16l-0.45-1.53c0.1899-0.44,0.5601-1.31,0.75-1.75
		C461.9241,580.4636,461.5439,579.6335,461.344,579.2236z"/>
	<path fill="none" d="M341.274,579.2136c0.1702,74.23,0.05,148.45,0.05,222.68l1.23-0.01c1.3401-0.01,2.6899-0.01,4.04,0.01
		c-0.0901-58.38-0.01-116.76-0.04-175.14c0.1602-15.7-0.3198-31.43,0.25-47.11C345.054,578.9036,343.1141,579.2136,341.274,579.2136
		z"/>
	<path fill="none" d="M477.614,801.9036c1.3101-0.02,2.6299-0.03,3.96-0.02l1.3,0.03c-0.01-74.25-0.02-148.51,0-222.76
		c-1.71-0.02-3.4202-0.05-5.1201-0.07C477.4739,653.3536,477.7539,727.6335,477.614,801.9036z"/>
	<path fill="none" d="M351.8641,579.1036c-0.05,0.45-0.1499,1.34-0.2,1.79c0.01,73.68,0.05,147.36-0.02,221.03
		c1.3298-0.02,2.6699-0.03,4.01-0.03l1.25,0.03c-0.05-74.21-0.1201-148.42,0.03-222.6299
		C355.244,579.2236,353.554,579.1636,351.8641,579.1036z"/>
	<path fill="none" d="M336.494,621.8035c-0.0898-14.28,0.28-28.6-0.3499-42.86c-1.72,0.07-3.4299,0.11-5.1501,0.14l0.0601,0.16
		c-0.3,74.2-0.01,148.41-0.1499,222.62l1.1199,0.03c1.3801,0,2.78,0.02,4.1702,0.05c0.52-4.69,0.2598-9.41,0.29-14.11
		C336.4739,732.4935,336.514,677.1436,336.494,621.8035z"/>
	<path fill="none" d="M362.034,579.1235c0.0801,74.12-0.03,148.24,0.0601,222.35c0.47,0.15,1.4099,0.46,1.8799,0.61
		c0.3401-0.01,1.0103-0.03,1.3501-0.04l1.9199-0.52c0.0601-74.12-0.04-148.26,0.04-222.39
		C365.534,579.1235,363.784,579.1235,362.034,579.1235z"/>
	<path fill="none" d="M578.644,579.0735c-1.6799,0.01-3.3601,0.02-5.03,0.03l-0.5701-0.02c-0.1199,72.57-0.05,145.13-0.0701,217.69
		c-0.0498,1.74,0.0801,3.5,0.4001,5.24c1.78-0.09,3.5798-0.14,5.3799-0.17C578.584,727.5836,578.7539,653.3336,578.644,579.0735z"/>
	<path fill="none" d="M415.9241,430.6335c7.7998-5.17,15.27-11.22,20.9299-18.72c0.4099-0.38,1.23-1.15,1.6399-1.5299h0.0801
		c11.6401-14.43,20.1101-31.94,22.22-50.45c1.52-9.4502,1.73-19.1301,0.25-28.6001c0.1501-1.9399-0.29-3.8601-0.5999-5.75
		c-4.5801-24.3601-18.2002-47.0601-37.9402-62.1299c-0.3999-0.27-1.2-0.8301-1.5999-1.1101c-0.3801-0.27-1.1501-0.8101-1.53-1.0801
		c-0.5601-1.26-2.3301-1.6799-3.3899-2.53c-28.6-19.4099-67.2101-22.5398-98.6901-8.3599
		c-26.0798,11.4199-46.8699,34.1699-55.9099,61.1699c-7.29,21.3-7.25,44.98,0.03,66.28c8.21,24.3801,25.96,45.36,48.6299,57.53
		c18.6702,10.16,40.5701,14.25,61.6599,11.53c0.7402-0.13,2.2302-0.38,2.9702-0.51
		C389.3841,444.5135,403.5339,438.7235,415.9241,430.6335z M399.684,303.4735c6.7-0.67,12.83,3.4501,16.22,8.9901
		c1,3.73,1.6799,7.6099,1.11,11.48c-0.1901,0.5898-0.5599,1.77-0.74,2.3599c-0.28,0.6001-0.58,1.1901-0.88,1.79
		c-2.1101,3.8201-5.74,6.3601-9.64,8.1001c-2.86,0.49-5.77,0.47-8.65,0.2999c-5.98-1.85-11.29-6.52-12.52-12.84
		C382.054,314.1636,389.914,303.8135,399.684,303.4735z M380.884,369.2935c1.43-1.6599,3.04-3.1499,4.65-4.6199
		c3.98-2.1401,8.69-3.15,13.13-2.03c5.94,1.3201,10.8001,6.27,12.2501,12.1399c1.48,5.55-0.4301,11.7401-4.49,15.7301
		c-3.97,4.0299-10.16,5.83-15.65,4.33c-6.26-1.4299-11.34-6.8799-12.42-13.2C377.514,377.3735,378.684,372.9636,380.884,369.2935z
		 M293.784,337.7535c-2.85-8.76,3.2-18.85,12.13-20.75c7.55-1.92,16.01,2.3099,19.01,9.49c3.87,8.3099-0.59,19.1901-9.27,22.23
		C306.984,352.3735,296.0941,346.8335,293.784,337.7535z M349.334,392.9636c-2.23,7.4799-9.68,13.2599-17.62,12.4499
		c-8.39-0.55-15.57-8.17-15.31-16.6201c-0.26-8.7799,7.62-16.6599,16.3799-16.51c7.58-0.3198,14.34,5.25,16.53,12.3301
		C349.614,387.3835,349.614,390.1836,349.334,392.9636z M346.784,305.0935c-9.62-1.1-16.52-11.6899-13.59-20.95
		c1.41-5.15,5.54-9.4,10.57-11.1101c10.23-3.98,22.67,4.6702,22.01,15.7201C366.194,298.5236,356.3441,306.8335,346.784,305.0935z"
		/>
	<path fill="none" d="M960.814,801.8936c1.76-0.01,3.53,0,5.3201,0.03c-12.6001-74.28-25.0901-148.5699-37.76-222.84
		c-1.74,0.01-3.46,0.01-5.1702,0.01c-24.1699,54.94-48.2998,109.89-72.48,164.81c-23.4299-54.94-47.0098-109.82-70.3999-164.78
		c-1.8799-0.02-3.75-0.03-5.6201-0.03c24.23,56.6,48.52,113.19,72.77,169.78c1.1301,2.69-1.4399,5.1-2.3298,7.52
		c-25.0701-59.18-50.5801-118.16-75.77-177.29h-5.8c26.21,61.44,52.79,122.73,79.0701,184.14c-1.05,2.15-1.95,4.4-3.3701,6.35
		c-4.4399-11.27-9.4099-22.32-14.05-33.51c-22.21-52.33-44.2798-104.71-66.5898-156.99c-2.02,0.01-4.04,0-6.04,0.01
		c27.95,65.91,55.96,131.8,84.03,197.67c-0.95,2.04-1.8899,4.09-2.8601,6.13c-29.0898-67.94-58.04-135.93-87.21-203.83
		c-1.8501,0.02-3.6899,0.04-5.52,0.08c30.1101,70.18,59.96,140.47,90.1001,210.64c-0.8901,1.96-1.8501,3.89-2.9102,5.78
		c-30.8799-72.16-61.5999-144.38-92.6099-216.48c-1.8401,0.01-3.6602,0.02-5.47,0.03c-12.47,74.27-25.1101,148.52-37.6702,222.78
		c1.7402-0.02,3.5-0.02,5.2603-0.02c11.9497-71.07,24-142.12,35.7998-213.21c1.78,2.7401,3.28,5.84,3.99,9.04
		c-11.3298,68.1-23.0901,136.14-34.3098,204.27c1.6099-0.05,3.2197-0.0699,4.8398-0.08c11.1802-65.37,22.3-130.74,33.3-196.13
		c1.4299,3.15,3.7,6.35,3.53,9.93c-10.5,62.06-20.8801,124.14-31.4399,186.19c1.77-0.01,3.54-0.01,5.3298,0.01
		c8.4299-50.11,16.9299-100.2,25.4001-150.3c1.73-9.22,2.8101-18.57,4.9399-27.7c1.0698,3.63,4.04,7.07,3.0801,11.03
		c-9.3601,55.68-18.7402,111.35-28.0701,167.02c1.5701-0.04,3.1399-0.07,4.72-0.09c9.1401-53.72,18.3398-107.44,27.5701-161.16
		c1.1699,3.55,3.6099,7.04,3.05,10.91c-8.3601,50.1-16.6401,100.22-25.0103,150.32c1.6602-0.03,3.3401-0.04,5.0303-0.04
		c8.0598-47.67,16.23-95.33,24.3398-143c1.72,3.02,2.8799,6.3,4.28,9.47c19.1699,44.53,38.1399,89.14,57.3999,133.63
		c1.95-0.09,3.9102-0.16,5.8701-0.27c30.8499-71.13,62.1299-142.08,93.0701-213.17c0.8398,3.02,2.04,6.29,1.5098,9.42
		c-29.8298,67.98-59.5898,136-89.45,203.97l5.2412-0.0046l85.7856-195.4383l1.7283,10.0479l-81.373,185.3851l0.1379-0.0001
		c0.6882-0.0779,2.6887-0.1099,5.1091-0.1189l77.5884-176.7629l1.728,10.0479l-73.1824,166.7256
		c2.9155,0.015,5.4509,0.0362,6.2368,0.0284c14.5901-33.76,29.4402-67.41,44.0901-101.14c8.3201-18.6,16.05-37.47,24.6401-55.93
		c0.1499,3.25,1.7598,6.65,0.7898,9.85c-21.51,49.1-43.03,98.19-64.55,147.28c1.9902-0.03,3.9902-0.07,6-0.13
		c20.2202-46.16,40.3-92.39,60.8401-138.4C945.1741,709.5436,953.064,755.7036,960.814,801.8936z"/>
	<path fill="none" d="M677.7239,785.8035c-29.5999-0.02-59.2,0.3-88.7998-0.16c0.0098-1.45-0.03-2.89-0.1101-4.32
		c27.97,0.12,55.9299,0.01,83.9001,0.06c2.7798,0,5.5898,0.2,8.3398-0.36l-0.3899-1.32c0.0198-0.47,0.05-1.4,0.0598-1.86l0.27-1.3
		c-2.75-0.53-5.5601-0.34-8.3298-0.33c-25.99,0.01-51.99-0.04-77.9802,0.02c-2.0498-0.0699-4.1997,0.27-6.1399-0.53
		c0.8701-1.29,0.8501-2.56-0.05-3.83l0.4502-0.78c30.6299-0.17,61.2598-0.06,91.8899-0.06l-0.1101-1.44c0-0.42,0.0103-1.27,0.02-1.7
		l0.28-1.58c-4.72-0.84-9.55-0.18-14.3098-0.38c-25.9202-0.07-51.8501,0.11-77.7603-0.08c0.02-1.69,0.04-3.38,0.0701-5.05
		c30.6001,0.06,61.2,0.01,91.8,0.03l-0.0898-1.04c-0.0103-1.3701,0-2.73,0.0098-4.09c-30.54,0.14-61.0999-0.25-91.6299,0.2
		l-0.1401-0.06c0.1101-58.87-0.0798-117.74,0.0901-176.6c-1.76-0.1-3.52-0.17-5.27-0.24c-0.27,74.3,0,148.61-0.1299,222.92
		l0.8799-0.03c30.55-0.22,61.1201,0.32,91.6599-0.26c1.5103,0.26,3.0601,0.29,4.6201,0.38c-0.05-1.39-0.0898-2.78-0.1099-4.15
		l0.0898-1.24c-30.5801,0.08-61.1499-0.03-91.73,0.06c-0.1001-1.66-0.1001-3.3-0.1299-4.94c30.6199-0.1,61.23-0.01,91.8398-0.04
		c-0.04-1.31-0.0698-2.6-0.1001-3.88l0.4001-1.34C680.0239,785.9536,678.9041,785.7335,677.7239,785.8035z"/>
	<path fill="none" d="M971.5239,801.9335c1.6401-0.06,3.3101-0.1,4.98-0.14c-12.51-74.2-25.0398-148.4-37.3599-222.63
		c-1.79-0.03-3.5801-0.05-5.3501-0.07C946.364,653.3735,958.9241,727.6636,971.5239,801.9335z"/>
	<path fill="none" d="M965.1641,579.1135c12.53,74.26,25.1299,148.51,37.6899,222.76c1.73,0.01,3.48,0.02,5.24,0.06
		c-12.53-74.29-25.1099-148.57-37.71-222.84C968.634,579.1036,966.894,579.1036,965.1641,579.1135z"/>
	<path fill="none" d="M722.104,366.5535c12.27,12.73,27.25,22.8701,43.6499,29.48l1.1902-0.22c0.2,0.3201,0.6099,0.9399,0.8098,1.26
		c9.1301,2.7501,18.27,6.23,27.8701,6.72c11.6699,1.87,23.6199,1.8601,35.3,0.0801c2.5,0.1499,4.95-0.4401,7.3999-0.8901
		c1.3701-0.25,2.79-0.48,4.1899-0.72c8.9399-2.52,17.8601-5.2901,26.21-9.44c1.1602-0.54,2.28-1.1199,3.4502-1.6699l0.24,0.03
		c9.5701-5.23,19.0701-11.28,26.7898-18.9102c2.5701-2.3699,5.3101-4.6399,7.4402-7.4399c0.7-0.79,1.4199-1.5701,2.1399-2.3501
		c2.78-2.6799,5.03-5.8398,7.3601-8.8999c1.76-2.29,3.8201-4.4299,5.01-7.1001c-0.0271-0.3601,9.0298-15.45,10.8101-22.0798
		c0.2-0.1602,4.1899-10.6899,5.3599-15.8701c7.8-31.74,3.1899-66.72-13.8599-94.74c-0.48-0.9199-0.9402-1.8301-1.3801-2.73
		c-0.99-1.6299-2.1101-3.1499-3.3899-4.53c-2.4202-4.8899-6.2002-9.04-9.9102-13c0,0-6.0193-5.8191-5.79-5.8298
		c-2.8599-3.8601-6.8599-6.6501-10.4399-9.77c-2.01-1.4202-10.8-7.6401-11.78-8.3201c-9.3599-5.6401-19.3401-10.3-29.7898-13.5
		c-5.4001-1.3501-10.77-2.9299-16.29-3.6799c-2.6201-0.6802-5.3301-1-8.03-1c-14.76-0.6401-29.8-0.8701-44.1902,3.0498l0.03,0.5
		c-2.01,0.1201-4.03,0.3801-5.95,0.99c-8.8101,2.76-17.3398,6.4202-25.4099,10.9202l-0.04,0.27
		c-3.51,1.8398-6.8899,3.9199-10.05,6.2998c-3.1299,1.53-5.6899,4.0701-8.45,6.1702c-3.01,2.6799-6.52,5-8.6101,8.54
		c-0.3198,0.1499-0.96,0.4399-1.2798,0.5898l-0.9402,0.97c-0.7898,0.6702-1.5798,1.4202-1.9199,2.4102
		c-2.0901,1.71-3.8899,3.75-5.26,6.0698c-4.21,4.3901-7.3999,9.7302-10.6001,14.9001
		c-18.2998,30.3999-22.6299,68.6399-12.1299,102.47c5.8301,18.99,16.26,36.53,30.0698,50.8
		C721.9739,366.4236,722.064,366.5134,722.104,366.5535z M851.274,232.5236c0.0299-0.03,0.1-0.09,0.14-0.12
		c4.62-4.0701,11.0601-6.22,17.1799-5.01c7.6201,1.09,14,7.04,16.4,14.25c0.67,2.95,0.6801,5.99,0.64,9c-1.02,5.62-4.2,10.85-9,14
		c-7.4299,5.21-18.26,4.3999-25.01-1.5901c-0.03-0.0299-0.1-0.0898-0.1399-0.1299
		C842.584,255.3035,842.4341,240.2535,851.274,232.5236z M837.2941,317.8235c0.7-6.59,4.8099-12.74,10.74-15.75
		c6.35-3.45,14.5399-3.1199,20.64,0.74c4.58,2.7101,7.3799,7.4301,9.26,12.26c0.3999,3.1901,0.45,6.4401-0.0901,9.6201
		c-1.73,5.3699-5.0499,10.4399-10.1399,13.1299c-6.27,3.73-14.53,3.54-20.6501-0.3799c-3.6899-2.1901-6.23-5.75-8.6399-9.2001
		C837.7341,324.8235,836.844,321.3435,837.2941,317.8235z M781.1641,205.6536c1.02-6.76,5.72-12.41,11.6399-15.6101
		c0.54-0.1699,1.6301-0.5,2.1702-0.6699c5.0399-2.04,10.3999-1.02,15.3398,0.76c4.05,2.52,7.9102,5.75,9.8501,10.24
		c2.96,6.61,2.22,14.84-2.1899,20.64c-4.99,6.9-14.6001,10.2799-22.7001,7.35C785.814,225.6536,779.4441,215.3235,781.1641,205.6536
		z M794.074,316.3735c0.04,0.03,0.1101,0.0801,0.1401,0.11c1.3599,1.13,2.6099,2.39,3.73,3.76c0.03,0.0399,0.09,0.11,0.1099,0.15
		c2.8801,4.1,4.4202,9.23,3.8401,14.24c-0.75,8.26-7.0601,15.73-15.14,17.73c-6.33,1.86-13.46,0.0801-18.48-4.1
		c-6.16-5.03-8.9301-13.89-6.5-21.49c1.84-6.6,7.36-11.9301,13.92-13.8C781.9141,310.8435,788.864,312.5935,794.074,316.3735z
		 M746.1841,244.3735c5.76-1.78,12.4199-1.28,17.5,2.15c6.36,4,10.2,11.65,9.34,19.16c-0.51,10.6199-10.73,19.52-21.3099,18.6099
		c-10.6301-0.1899-19.8101-9.9399-19.52-20.5399C732.104,255.1636,738.084,247.0935,746.1841,244.3735z"/>
	<path fill="none" d="M954.7639,579.1036c12.51,74.27,25.01,148.54,37.4001,222.8199c1.76-0.0099,3.53-0.0099,5.3098,0.01
		c-12.5999-74.27-25.0498-148.57-37.77-222.82C958.0439,579.1036,956.4041,579.1036,954.7639,579.1036z"/>
	<path fill="none" d="M944.094,579.1135c12.6899,74.2401,25.1401,148.52,37.77,222.77c1.74,0,3.49,0,5.26,0.02
		c-12.5601-74.27-25.1599-148.54-37.6902-222.82C947.644,579.0936,945.864,579.0936,944.094,579.1135z"/>
	<path d="M795.274,228.3635c8.1,2.9299,17.7101-0.45,22.7001-7.35c4.4099-5.8,5.1499-14.03,2.1899-20.64
		c-1.9399-4.49-5.8-7.72-9.8501-10.24c-4.9399-1.78-10.2999-2.8-15.3398-0.76c-0.54,0.1699-1.6301,0.5-2.1702,0.6699
		c-5.9199,3.2001-10.6199,8.8501-11.6399,15.6101C779.4441,215.3235,785.814,225.6536,795.274,228.3635z"/>
	<path d="M851.4841,262.9236c0.0399,0.04,0.1099,0.1,0.1399,0.1299c6.75,5.99,17.5801,6.8,25.01,1.5901c4.8-3.15,7.98-8.38,9-14
		c0.04-3.01,0.03-6.05-0.64-9c-2.4-7.21-8.7799-13.16-16.4-14.25c-6.1199-1.21-12.5599,0.9399-17.1799,5.01
		c-0.04,0.03-0.1101,0.09-0.14,0.12C842.4341,240.2535,842.584,255.3035,851.4841,262.9236z"/>
	<path d="M751.7141,284.2935c10.58,0.9102,20.7999-7.99,21.3099-18.6099c0.86-7.51-2.98-15.16-9.34-19.16
		c-5.0801-3.4301-11.74-3.9301-17.5-2.15c-8.1001,2.72-14.0801,10.79-13.99,19.38
		C731.9041,274.3535,741.084,284.1035,751.7141,284.2935z"/>
	<path d="M343.764,273.0334c-5.03,1.7101-9.16,5.9601-10.57,11.1101c-2.93,9.26,3.97,19.85,13.59,20.95
		c9.5601,1.74,19.41-6.5699,18.9901-16.34C366.434,277.7036,353.994,269.0535,343.764,273.0334z"/>
	<path d="M847.054,337.4436c6.1201,3.9199,14.3801,4.1099,20.6501,0.3799c5.09-2.6899,8.4099-7.76,10.1399-13.1299
		c0.54-3.1801,0.49-6.4301,0.0901-9.6201c-1.8801-4.83-4.6801-9.5499-9.26-12.26c-6.1001-3.8599-14.29-4.1899-20.64-0.74
		c-5.9301,3.01-10.04,9.16-10.74,15.75c-0.4501,3.52,0.4401,7,1.12,10.42C840.824,331.6936,843.364,335.2535,847.054,337.4436z"/>
	<path d="M397.104,336.4935c2.88,0.17,5.79,0.1901,8.65-0.2999c3.9-1.74,7.5299-4.28,9.64-8.1001c0.3-0.6,0.6-1.1899,0.88-1.79
		c0.1801-0.5898,0.5499-1.77,0.74-2.3599c0.5699-3.8701-0.11-7.75-1.11-11.48c-3.39-5.54-9.52-9.6602-16.22-8.9901
		c-9.77,0.34-17.63,10.6901-15.1,20.1801C385.814,329.9735,391.124,334.6436,397.104,336.4935z"/>
	<path d="M761.774,326.7736c-2.4301,7.6,0.34,16.46,6.5,21.49c5.02,4.1801,12.15,5.96,18.48,4.1c8.08-2,14.39-9.47,15.14-17.73
		c0.5801-5.01-0.96-10.14-3.8401-14.24c-0.0199-0.04-0.0798-0.1101-0.1099-0.15c-1.1201-1.37-2.3701-2.63-3.73-3.76
		c-0.03-0.0299-0.1001-0.08-0.1401-0.11c-5.21-3.78-12.1599-5.53-18.3799-3.4C769.134,314.8435,763.614,320.1736,761.774,326.7736z"
		/>
	<path d="M324.924,326.4935c-3-7.1801-11.46-11.41-19.01-9.49c-8.93,1.9-14.98,11.99-12.13,20.75
		c2.3101,9.08,13.2,14.62,21.8701,10.97C324.334,345.6836,328.794,334.8035,324.924,326.4935z"/>
	<path d="M390.774,394.8435c5.49,1.5,11.6801-0.3,15.65-4.33c4.0599-3.99,5.97-10.1801,4.49-15.7301
		c-1.45-5.8699-6.3101-10.8198-12.2501-12.1399c-4.44-1.12-9.15-0.1101-13.13,2.03c-1.61,1.47-3.22,2.96-4.65,4.6199
		c-2.2,3.6702-3.37,8.0801-2.53,12.3501C379.434,387.9636,384.514,393.4136,390.774,394.8435z"/>
	<path d="M332.784,372.2834c-8.7599-0.1499-16.64,7.7301-16.3799,16.51c-0.26,8.4501,6.92,16.0701,15.31,16.6201
		c7.94,0.81,15.39-4.97,17.62-12.4499c0.28-2.78,0.28-5.5801-0.02-8.3501C347.124,377.5334,340.364,371.9636,332.784,372.2834z"/>
	<path d="M897.9341,1045.9735c-2.01-10.84-4.5801-21.58-6.45-32.4399c0.1899-0.21,0.5798-0.64,0.7699-0.86
		c6.17-0.38,12.37,0.14,18.5499-0.2201c-0.0199-14.23-0.0099-28.46,0.1001-42.6899c0.02-0.36,0.05-1.07,0.0701-1.43
		c-0.3-14.06-0.2301-28.13-0.05-42.19c-66.76,0.02-133.51,0.03-200.26,0c-27.3,1.13-54.64,0.39-81.96,0.59
		c-36.67,0.02-73.3301,0.01-110,0c-6.1602-0.06-12.3601,0.29-18.4801-0.58c0.13,28.91,0,57.81,0.0699,86.71
		c7.4401-0.0599,14.8801-0.01,22.3201-0.02c-0.11,0.55-0.3301,1.66-0.4399,2.2101c-0.02,0.1-0.0701,0.2899-0.0901,0.38
		c-9.73,47.09-19.05,94.26-28.61,141.39c-3.45,17.6499-7.35,35.23-10.49,52.9399h33c13.1901-65.65,26.4501-131.29,39.67-196.9301
		c15.01-0.0199,30.02,0.0701,45.03-0.0499c0.6499,4.9299,0.8799,9.91,1.1399,14.88c0.26,6.99,1.2201,13.97,1.1201,20.98
		c-1.51,7.35-3.9,14.5-5.73,21.78c-12.6602,46.4399-25.1901,92.9099-37.9001,139.34h33.6801c5.55-19.89,10.77-39.88,16.33-59.76
		c0.6301,7.38,1.1501,14.79,1.3601,22.21c0.28,3.9301,0.6,7.8601,0.8199,11.8101c0.0499,1.01,0.1,2.04,0.15,3.1l0.0701,1.3
		c0.6099,7.1,0.9399,14.22,1.4199,21.34h38.71c0.04-0.3101,0.1201-0.9301,0.17-1.24c-0.16-1.5601-0.28-3.1-0.38-4.63
		c-1.3301-20.46-2.73-40.92-3.75-61.39c-0.0601-0.92-0.1799-2.78-0.24-3.7c-0.77-9.8-1.4-19.61-1.8401-29.41
		c-0.1299-1.8101-0.26-3.58-0.3499-5.37c-0.28-3.59-0.6101-7.1801-0.6401-10.78c-0.5599-7.09-0.9299-14.2-1.3199-21.2999
		c-0.96-11.3401-1.4301-22.7201-2.24-34.0701c-0.1901-2.39-0.2899-4.8199,0.41-7.12c1.62-5.99,3.27-11.98,4.8999-17.96
		c16.27,0.0599,32.54,0.08,48.8201,0c5.85-0.89,11.8101-0.7001,17.7-0.2001c5.96,0.51,11.9501,0.0801,17.9301,0.3301
		c8.84,0.22,17.6901,0,26.5299,0.08c-0.3198,10.98-0.8899,21.95-1.5199,32.92l-0.0499,0.8199c-0.1501,2.17-0.3,4.35-0.3901,6.55
		c-1.0699,22.26-2.1499,44.5399-3.47,66.7899c-0.1,3.0901-0.29,6.1801-0.47,9.28c-1.22,25.5601-2.4299,51.13-3.99,76.6801
		l-0.0701,1.3199c0.01,0.6,0.02,1.8,0.03,2.4h38.8c0.37-8.03,0.72-16.0601,1.3101-24.08c0.0399-0.67,0.1199-2.02,0.1599-2.7001
		c0.01-0.85,0.03-1.6899,0.0701-2.52c0.1499-4.4099,0.46-8.7999,0.74-13.1899c0.8099-20.47,2.01-40.92,3.1299-61.38
		c9.25,34.67,18.67,69.29,28.2001,103.87h33.46c-14.2799-52.36-28.5199-104.74-42.66-157.14c-0.49-1.62-0.9399-3.23-1.3699-4.84
		c-3.24-11.5701-6.27-23.2001-9.4601-34.78c4.2101-0.53,8.4301,0.13,12.66-0.04c6.22-0.1799,12.4399-0.1599,18.6699-0.0499
		c9.02,0.1799,18.05,0.0699,27.0801,0.1c2.08,10.9399,4.38,21.85,6.55,32.78l0.1799,0.87l0.27,1.28
		c10.87,53.95,21.61,107.9199,32.6799,161.8199h33c-10.96-53.28-21.54-106.64-32.3599-159.95
		C898.4541,1048.5135,898.1941,1047.2435,897.9341,1045.9735z"/>
	<path d="M1268.7739,745.9536c0.01-4.89,0.0601-9.79,0.01-14.68c-0.0601-10.99-0.02-21.97-0.01-32.96
		c-0.0151-4.5483-0.0273-9.0966-0.0308-13.6436h-0.0002v-30.5464c-0.0095,0-0.0193,0.0001-0.0288,0.0001
		c0-3.4944,0.0151-6.9887,0.0288-10.4831v-20.5211c-0.0056-1.3828-0.0059-2.7659,0-4.1492V594.61
		c-0.0046-2.3292-0.0117-4.658-0.0288-6.9865c0.0798-33,0.0498-66.01,0.02-99.01l-0.0103-0.64
		c-0.1099-12.1801,0.2402-24.36-0.1499-36.54c-5.6802,3.28-11.1602,6.89-16.8999,10.06c-0.8601,0.47-1.71,0.93-2.5303,1.41
		c-14.25,9.1299-28.9097,17.65-43.3398,26.5c-15.04,9.11-30.1001,18.2-45.1299,27.33c-6.73,3.84-13.0901,8.41-20.0303,11.8
		c-22.6199,0.42-45.2698,0.08-67.8896,0.17c-4.02,0.09-8.04,0.12-12.0503-0.01c-6.6099-0.02-13.21,0.05-19.8098,0.01
		c-0.03,19.02-0.02,38.04,0,57.06c0,0.46,0.01,1.37,0.01,1.83c0.01,5.36-0.03,10.71-0.0901,16.07c-0.5701,0.2-1.72,0.6-2.29,0.8
		c0.5801-0.17,1.75-0.53,2.3301-0.71c0.02,9.78,0.04,19.56,0.02,29.33c0,7.2,0.04,14.41,0.02,21.61v0.84
		c-0.05,5.27-0.01,10.54-0.03,15.81v0.47c0.04,16.58-0.1001,33.16,0.0698,49.74c7.54,0.18,15.0901,0.12,22.6301,0.08
		c6.0701,0,12.1501-0.01,18.23,0c10.73,0.07,21.47-0.04,32.2,0.08h0.3901c5.8599-0.14,11.72-0.07,17.5898-0.08
		c4.0303,0.17,8.54-0.86,12.0103,1.79c12.0098,7.6,24.52,14.41,36.3198,22.35c1.0701,0.54,2.1401,1.1,3.23,1.7
		c1.6099,0.91,3.1802,1.9,4.77,2.88c0.3701,0.22,1.1001,0.67,1.47,0.9c3.9802,2.25,7.74,4.91,11.9299,6.8l2.4993,1.5454
		c0.0645-0.0472,0.1233-0.0903,0.1709-0.1254c0.3093,0.2842,0.6292,0.5533,0.9517,0.8194l26.958,16.6692l-0.0002,0.0002
		c12.1406,7.3602,24.2781,14.7265,36.4604,22.0211c0.0801-17.0699,0.02-34.14,0.02-51.2
		C1268.7639,747.3235,1268.7739,746.4136,1268.7739,745.9536z"/>
	<path d="M1045.4641,390.5435c2.0498-4.3699,3.8999-8.8398,5.71-13.3101c0.7998-2.1899,1.6399-4.3699,2.52-6.5398
		c5.5698-15,9.5498-30.5601,12.23-46.3201c0.0498-0.3101,0.1499-0.9399,0.2-1.26c6.8601-44.71,1.8201-91.22-15.0901-133.21
		c-0.1499-0.3601-0.45-1.0701-0.6001-1.4202c-2.1199-4.97-4.4299-9.8499-6.6799-14.75c-3.01-6.27-6.3599-12.3699-9.8999-18.3499
		c-8.78-14.8501-19.29-28.6101-30.79-41.46c-22.55-24.4102-49.79-44.5-79.97-58.4402c-59.0901-27.6299-129.03-30.75-190.4102-8.72
		l-0.7998,0.3c-38.26,13.6899-72.9102,37-100.4102,66.8801c-11.45,12.5999-21.4099,26.4299-30.5598,40.7698
		c-3.2302,6.01-6.6401,11.9302-9.6401,18.0701c-2.5,5.1501-4.8201,10.3901-7.0701,15.6602l-0.5598,1.3098
		c-6.7102,16.8901-11.76,34.4502-14.7,52.3901c-10.3301,2.04-20.6702,4.1299-31.05,5.8499c-4.5801-8.25-10.4001-15.7-15.73-23.46
		c-0.0601-0.0698-0.1702-0.21-0.23-0.28c-3.78-3.8198-6.99-8.1499-10.7-12.02c-7.4302-8.0298-15.5601-15.3899-24.1001-22.22
		l-0.6401-0.51c-11.4099-8.6199-23.5098-16.3899-36.3599-22.6799c-1.1802-0.5801-2.3601-1.1599-3.54-1.71
		c-5.6099-2.53-11.29-4.9299-17.02-7.1799c-5.26-1.53-10.4199-3.3901-15.72-4.8201c-36.35-10.0801-75.4599-9.9299-111.78,0.24
		c-31.8501,8.9099-61.5,25.5801-85.6699,48.1699c-24.78,22.99-43.8401,52.1201-54.9302,84.0601
		c-12.77,36.6101-14.98,76.8101-6.4099,114.6301c8.6001,38.39,28.5,74.14,56.48,101.78c26.6101,26.58,60.5901,45.53,97.0601,54.64
		c-0.1699,7.7-0.0701,15.4-0.0801,23.11c-14.0398,0.19-28.0798-0.02-42.1299,0.11c-0.1301-0.51-0.4001-1.52-0.53-2.02
		c-15.8701-5.86-31.72-11.74-47.5701-17.64c-2.1101-0.83-4.3999-0.88-6.6399-0.86c-10.23,0.08-20.46,0.02-30.6899,0.04
		c5.7998,11.89,11.48,23.83,17.23,35.74c1.7798,3.9,3.98,7.64,5.2798,11.76l0.1702,0.33c6.21,11.23,11.21,23.12,16.98,34.6
		c5.26,10.91,10.4399,21.85,15.75,32.7401c6.74-1.98,13.5598-3.71,20.3499-5.52c3.6001-5.84,7.1802-11.69,10.7603-17.54l0.5-0.81
		c1.4497-0.8199,3.1199-0.81,4.7397-0.81c10.3101,0.08,20.6201,0.1,30.9202-0.0099c1.71-0.01,3.4199,0.2,5.0701,0.62
		c-0.25,86.75-0.0801,173.5099-0.0801,260.2599c22.23-0.0099,44.47,0,66.71-0.0099c-2.55,19.33-5.25,38.64-7.73,57.97
		c-48.9299,9.39-97.8901,18.67-146.8401,27.9901l-0.7,0.1499c-4.04,0.51-8.1001,2.14-12.1499,1.8
		c-10.4702-5.13-20.73-10.72-31.0901-16.05c-1.28-0.53-2.5801-1.56-4.04-1.08c-40.6699,7.74-81.3401,15.55-122.03,23.25l-0.71,0.15
		c-1.28,0.23-2.5698,0.47-3.8599,0.71c2.7998,23.92,6,47.8,8.77,71.73c29.0098-5.2999,57.95-10.97,86.9299-16.4199
		c13.8599-2.79,27.8699-5,41.6399-8.11c7.0601-6.2301,13.1899-13.49,20.1899-19.8l0.1301-0.14c2.6799-2.98,5.5-5.83,8.3601-8.62
		c1.0098-1.14,2.52-1.49,3.9399-1.8099c30.51-6.5,60.99-13.16,91.5-19.6901c0.6799-0.14,2.02-0.4299,2.6899-0.58
		c14.4299-3.13,28.8701-6.2201,43.3-9.36l0.72-0.17c9.1099-1.92,18.1899-3.93,27.3-5.85l0.73-0.1801
		c1.3201-0.3199,2.6499-0.61,3.98-0.89c3.9399-24.62,8.0601-49.22,12.0798-73.82l0.2402-1.11
		c89.3298-0.14,178.6699-0.02,267.9999-0.0601c10.23,0.26,20.5-0.56,30.6899,0.47c86.45-0.28,172.9099-0.02,259.3501-0.13
		c25.5698,0.17,51.1499-0.29,76.6997,0.23c-0.5498-23.83-0.0999-47.69-0.2397-71.54c-0.1301-55.98,0.25-111.96-0.02-167.95
		c-0.26-5.48-0.26-10.97,0.1699-16.44c0.1401-22.57,0.02-45.14,0.05-67.71c-0.3901-33.22-0.0801-66.45-0.1599-99.6801
		c0.0498-3.37,0.0198-6.75-0.04-10.12c-18.4001-0.1-36.8101,0.21-55.2002-0.15c4.73-4.1801,9.53-8.26,14.05-12.67l2.8301-3.03
		c2.3298-2.15,4.5999-4.37,6.77-6.68c12.27-13.41,23.3999-27.92,32.5598-43.64l0.6401-1.03c3.5601-6.1,6.8301-12.37,9.9199-18.7199
		C1044.9441,391.5935,1045.2839,390.8936,1045.4641,390.5435z M336.1942,801.9435c-1.3901-0.03-2.79-0.05-4.1702-0.05l-1.1199-0.03
		c0.1399-74.21-0.1501-148.42,0.1499-222.62l-0.0601-0.16c1.7202-0.03,3.4302-0.07,5.1501-0.14
		c0.6299,14.26,0.26,28.58,0.3499,42.86c0.02,55.34-0.02,110.69-0.0098,166.03
		C336.4539,792.5336,336.7142,797.2535,336.1942,801.9435z M346.554,626.7535c0.03,58.38-0.05,116.76,0.04,175.14
		c-1.3501-0.02-2.7-0.02-4.04-0.01l-1.23,0.01c0-74.23,0.1201-148.45-0.05-222.68c1.8401,0,3.78-0.31,5.53,0.43
		C346.2342,595.3235,346.7142,611.0535,346.554,626.7535z M356.9041,801.9235l-1.25-0.03c-1.3401,0-2.6802,0.01-4.01,0.03
		c0.0701-73.67,0.03-147.35,0.02-221.03c0.05-0.45,0.1499-1.34,0.2-1.79c1.6899,0.06,3.3799,0.12,5.0701,0.19
		C356.784,653.5035,356.8541,727.7136,356.9041,801.9235z M367.244,801.5236l-1.9199,0.52c-0.3398,0.0099-1.01,0.03-1.3501,0.04
		c-0.47-0.15-1.4099-0.46-1.8799-0.61c-0.0901-74.11,0.02-148.23-0.0601-222.35c1.75,0,3.5,0,5.25,0.01
		C367.2039,653.2635,367.304,727.4036,367.244,801.5236z M310.044,435.3535c-22.6699-12.17-40.4199-33.15-48.6299-57.53
		c-7.28-21.3-7.3201-44.98-0.03-66.28c9.04-27,29.8301-49.75,55.9099-61.1699c31.48-14.1799,70.0901-11.05,98.6901,8.3599
		c1.0598,0.8501,2.8298,1.27,3.3899,2.53c0.3799,0.27,1.1499,0.8101,1.53,1.0801c0.3999,0.28,1.2,0.8401,1.5999,1.1101
		c19.74,15.0698,33.3601,37.7698,37.9402,62.1299c0.3098,1.8899,0.75,3.8101,0.5999,5.75c1.48,9.47,1.27,19.1499-0.25,28.6001
		c-2.1099,18.51-10.5798,36.02-22.22,50.45h-0.0801c-0.4099,0.3799-1.23,1.1499-1.6399,1.5299
		c-5.6599,7.5-13.1301,13.55-20.9299,18.72c-12.3901,8.09-26.54,13.88-41.2499,15.74c-0.74,0.13-2.23,0.38-2.9702,0.51
		C350.6141,449.6035,328.7142,445.5135,310.044,435.3535z M461.814,584.1636c-28,0.33-56.01,0.02-84.02,0.16
		c-0.0999,1.74,0.1101,3.55-0.3599,5.26c28.1198-0.25,56.2499-0.01,84.3698-0.12l-0.1699,1.4c0.01,1.23,0.03,2.48,0.05,3.73
		c-27.99-0.05-55.9802,0-83.9699-0.03c-0.0103,1.73-0.04,3.47,0.0798,5.21c27.6901-0.04,55.3901,0.02,83.09-0.03l0.78-0.01
		c-0.03,1.7-0.05,3.42-0.05,5.14c-27.9102-0.08-55.8301,0.07-83.7399-0.07c-0.2,1.68-0.1599,3.38-0.1799,5.08
		c27.9899-0.06,55.9899-0.04,83.9799,0c-0.01,1.24-0.01,2.5-0.01,3.76l0.0898,1.38c-27.97-0.08-55.9399,0.08-83.9099-0.08
		c-0.1401,1.73-0.1299,3.48-0.1499,5.23c25.3398-0.08,50.6899,0,76.0297-0.04c2.73-0.01,5.5-0.16,8.2002,0.37l-0.01,1.44
		c-0.1201,0.39-0.3701,1.15-0.5,1.54l0.49,1.57c-1.7002,0.31-3.4199,0.57-5.1401,0.6c-26.3899-0.05-52.79-0.03-79.1799,0
		c-0.03,13.57,0.0801,27.14-0.05,40.71l0.24,0.85c20.75-0.07,41.4999-0.17,62.2499,0.05c-0.03,1.67-0.0398,3.36-0.03,5.05
		c-20.7598-0.09-41.5097,0.05-62.2597-0.06c-0.0103,1.73,0.1599,3.5-0.2402,5.22c20.8301-0.29,41.6801-0.01,62.52-0.14
		c-0.01,1.76-0.01,3.53,0,5.3c-20.7798-0.09-41.5698,0.03-62.3498-0.06c0.03,1.79,0.01,3.6-0.04,5.41
		c3.3401-0.5,6.72-0.31,10.0901-0.3199c17.4299,0,34.8598-0.01,52.2897,0.0099c-0.0198,1.73-0.03,3.46-0.03,5.21
		c-20.7898-0.08-41.5698,0.02-62.3598-0.05c-0.02,1.74-0.0701,3.49-0.02,5.25c14.6799-0.66,29.4099-0.1,44.1201-0.28
		c5.7898,0.08,11.5898-0.19,17.3899,0.17l0.8699-0.18c0.0103,1.72,0.02,3.4399,0.05,5.18c-20.6499-0.1-41.3098,0.14-61.9599-0.12
		c-0.5601,1.69-0.26,3.54-0.3999,5.31c20.8201,0.11,41.6599-0.36,62.4599,0.24c-0.0701,1.61-0.1301,3.23-0.1599,4.86
		c-20.75-0.11-41.4902,0.09-62.2299-0.11c-0.2402,29.59-0.05,59.18-0.1001,88.77l-1.1602,0.1201c-0.4897-0.07-1.47-0.22-1.96-0.3
		c-0.5298,0.05-1.5798,0.15-2.0999,0.19c-0.01-74.23,0.0898-148.47-0.05-222.71c29.6599-0.1,59.33-0.09,88.9799,0
		c0.2,0.41,0.5801,1.24,0.77,1.66c-0.1899,0.44-0.5601,1.31-0.75,1.75L461.814,584.1636z M482.874,801.9136l-1.3-0.03
		c-1.3301-0.01-2.6499,0-3.96,0.02c0.1399-74.27-0.1401-148.55,0.1399-222.82c1.7,0.02,3.4102,0.05,5.1201,0.07
		C482.854,653.4036,482.864,727.6636,482.874,801.9136z M493.1941,801.3235c-0.46,0.18-1.3701,0.55-1.8301,0.73
		c-0.3201-0.0099-0.96-0.03-1.28-0.03c-0.5-0.11-1.51-0.32-2.01-0.42c-0.1099-74.16-0.01-148.32-0.05-222.48h5.26
		C493.2039,653.1835,493.384,727.2635,493.1941,801.3235z M503.1741,802.2635l-1.4001-0.43c-0.48,0.02-1.4299,0.04-1.9099,0.05
		l-1.47,0.06c-0.04-74.26,0.0598-148.52-0.05-222.78c1.76-0.05,3.51-0.13,5.28-0.19c0.0798,73.27-0.03,146.54,0.05,219.8
		C503.6641,799.9536,503.5039,801.1135,503.1741,802.2635z M513.9341,802.1835l-1.2302-0.31c-1.3499,0-2.6899,0-4.0298,0.01
		c0.0898-54.69,0.01-109.39,0.0298-164.09c-0.0898-19.44,0.2002-38.89-0.1499-58.33c1.73-0.29,3.48-0.37,5.24-0.39l0.6001-0.01
		c0.3699,73.21-0.0701,146.44,0.1899,219.65C514.624,799.9136,514.4141,801.0635,513.9341,802.1835z M524.354,801.9235
		c-1.77-0.02-3.55-0.03-5.3101-0.03c-0.0798-74.26,0.02-148.53-0.05-222.79c1.78-0.01,3.5701,0,5.3701,0.0099
		C524.374,653.3835,524.374,727.6536,524.354,801.9235z M526.614,477.8135c2.97-4.79,6.46-9.24,9.1699-14.19
		c0.115-0.017,1.51-2.15,1.8901-2.76c3.4099-5.74,6.4099-11.69,9.4199-17.63c0.99-2.38,2.03-4.73,3.26-6.99
		c2.3601-6.74,5.23-13.32,7.22-20.2c8.3799-1.08,16.5701-3.4399,24.95-4.35c1.3901-0.4,2.79-0.78,4.23-1.0399
		c3.9299-0.6702,7.8501-1.3701,11.8-1.9701c0.96,1.6801,1.9199,3.38,2.8999,5.0599c9.0701,14.5301,19.1702,28.4501,30.8801,40.98
		l-0.01,0.17c2.78,2.76,5.5901,5.5,8.0901,8.52c5.4299,4.64,10.5798,9.69,16.03,14.36
		C613.1741,477.9636,569.894,477.8936,526.614,477.8135z M546.7439,801.8835c-1.45,0-2.8899,0.01-4.3298,0.03
		c0-74.19,0.1799-148.39-0.0901-222.59c1.75-0.21,3.51-0.31,5.27-0.36c0.23,74.3-0.02,148.6,0.1201,222.9L546.7439,801.8835z
		 M557.9739,802.0236l-1.2598-0.13c-1.3601-0.01-2.7202-0.02-4.0701-0.01c0.26-68.72,0.0398-137.44,0.1099-206.16
		c-0.0898-5.38,0.24-10.77-0.26-16.13c1.71-0.5,3.5-0.47,5.28-0.5l0.6501-0.02c0.24,72.56,0,145.12,0.1199,217.69
		C558.5039,798.5135,558.2839,800.2836,557.9739,802.0236z M568.2439,801.9435l-1.5498-0.04l-1.96-0.04l-1.52,0.3
		c-0.54-3.1-0.3801-6.2401-0.3701-9.35c0-53.7-0.02-107.4-0.01-161.1c0.1101-17.41-0.24-34.83,0.28-52.23l-0.03-0.33
		c1.73,0,3.47-0.01,5.21-0.01l-0.03,0.42c0.5901,23.73,0.1201,47.48,0.26,71.21c0.01,32,0,64,0,96
		C568.324,765.1636,568.9141,783.5735,568.2439,801.9435z M573.374,802.0135c-0.3201-1.74-0.45-3.5-0.4001-5.24
		c0.02-72.56-0.0498-145.12,0.0701-217.69l0.5701,0.02c1.6699-0.01,3.3501-0.02,5.03-0.03c0.1099,74.26-0.0601,148.51,0.1099,222.77
		C576.9539,801.8735,575.1541,801.9235,573.374,802.0135z M680.7839,791.7036c-30.6099,0.03-61.22-0.06-91.8398,0.04
		c0.0298,1.64,0.0298,3.28,0.1299,4.94c30.5801-0.09,61.1499,0.02,91.73-0.06l-0.0898,1.24c0.02,1.37,0.0598,2.76,0.1099,4.15
		c-1.5601-0.09-3.1099-0.12-4.6201-0.38c-30.5398,0.58-61.1099,0.04-91.6599,0.26l-0.8799,0.03
		c0.1299-74.31-0.1401-148.62,0.1299-222.92c1.75,0.07,3.51,0.14,5.27,0.24c-0.1699,58.86,0.02,117.73-0.0901,176.6l0.1401,0.06
		c30.53-0.45,61.0898-0.06,91.6299-0.2c-0.0098,1.36-0.02,2.72-0.0098,4.09l0.0898,1.04c-30.6001-0.02-61.2,0.03-91.8-0.03
		c-0.03,1.67-0.05,3.36-0.0701,5.05c25.9102,0.19,51.8401,0.0099,77.7603,0.08c4.7598,0.2,9.5898-0.46,14.3098,0.38l-0.28,1.58
		c-0.0098,0.43-0.02,1.28-0.02,1.7l0.1101,1.44c-30.6301,0-61.26-0.11-91.8899,0.06l-0.4502,0.78c0.9001,1.27,0.9202,2.54,0.05,3.83
		c1.9402,0.8,4.0901,0.46,6.1399,0.53c25.9902-0.06,51.9902-0.0099,77.9802-0.02c2.7698-0.01,5.5798-0.2,8.3298,0.33l-0.27,1.3
		c-0.0098,0.46-0.04,1.39-0.0598,1.86l0.3899,1.32c-2.75,0.56-5.5601,0.36-8.3398,0.36c-27.9702-0.05-55.9302,0.06-83.9001-0.06
		c0.0801,1.43,0.1199,2.87,0.1101,4.32c29.5999,0.46,59.2,0.14,88.7998,0.16c1.1802-0.07,2.3,0.15,3.3601,0.68l-0.4001,1.34
		C680.7141,789.1036,680.7439,790.3936,680.7839,791.7036z M703.9939,213.1135c3.2002-5.1699,6.3901-10.51,10.6001-14.9001
		c1.3701-2.3198,3.1699-4.3599,5.26-6.0698c0.3401-0.99,1.1301-1.74,1.9199-2.4102l0.9402-0.97
		c0.3198-0.1499,0.96-0.4399,1.2798-0.5898c2.0901-3.54,5.6001-5.8601,8.6101-8.54c2.76-2.1001,5.3201-4.6401,8.45-6.1702
		c3.1602-2.3799,6.54-4.46,10.05-6.2998l0.04-0.27c8.0701-4.5,16.5999-8.1602,25.4099-10.9202
		c1.9199-0.6099,3.9399-0.8699,5.95-0.99l-0.03-0.5c14.3901-3.9199,29.4302-3.6899,44.1902-3.0498c2.7,0,5.4099,0.3198,8.03,1
		c5.52,0.75,10.8899,2.3298,16.29,3.6799c10.4497,3.2,20.4299,7.8599,29.7898,13.5c0.98,0.6799,9.77,6.8999,11.78,8.3201
		c3.5801,3.1199,7.5801,5.9099,10.4399,9.77c-0.2292,0.0107,5.79,5.8298,5.79,5.8298c3.71,3.96,7.49,8.1101,9.9102,13
		c1.2798,1.3801,2.3999,2.9001,3.3899,4.53c0.4399,0.8999,0.9001,1.8101,1.3801,2.73c17.0498,28.02,21.6599,63,13.8599,94.74
		c-1.1699,5.1802-5.1599,15.71-5.3599,15.8701c-1.7803,6.6299-10.8372,21.7197-10.8101,22.0798
		c-1.1899,2.6702-3.25,4.8101-5.01,7.1001c-2.3301,3.0601-4.5801,6.22-7.3601,8.8999c-0.72,0.78-1.4399,1.5601-2.1399,2.3501
		c-2.1301,2.8-4.8701,5.0701-7.4402,7.4399c-7.7197,7.6301-17.2197,13.6802-26.7898,18.9102l-0.24-0.03
		c-1.1702,0.55-2.29,1.1299-3.4502,1.6699c-8.3499,4.1499-17.27,6.92-26.21,9.44c-1.3999,0.24-2.8198,0.47-4.1899,0.72
		c-2.45,0.4501-4.8999,1.04-7.3999,0.8901c-11.6802,1.78-23.6301,1.7899-35.3-0.0801c-9.6001-0.49-18.74-3.97-27.8701-6.72
		c-0.2-0.3201-0.6099-0.9399-0.8098-1.26l-1.1902,0.22c-16.3999-6.6099-31.3799-16.75-43.6499-29.48
		c-0.04-0.04-0.1301-0.1299-0.1702-0.1699c-13.8098-14.27-24.2397-31.8101-30.0698-50.8
		C681.364,281.7534,685.6941,243.5134,703.9939,213.1135z M976.5039,801.7936c-1.6699,0.04-3.3398,0.08-4.98,0.14
		c-12.5999-74.27-25.1599-148.56-37.73-222.84c1.77,0.02,3.5601,0.04,5.3501,0.07
		C951.4641,653.3936,963.9939,727.5936,976.5039,801.7936z M876.4739,801.7836c-2.0098,0.06-4.0098,0.1-6,0.13
		c21.52-49.09,43.04-98.1801,64.55-147.28c0.97-3.2-0.6399-6.6-0.7898-9.85c-8.5901,18.46-16.3201,37.33-24.6401,55.93
		c-14.6499,33.73-29.5,67.38-44.0901,101.14c-0.7859,0.0078-3.3213-0.0134-6.2368-0.0284l73.1824-166.7256l-1.728-10.0479
		l-77.5884,176.7629c-2.4204,0.009-4.4209,0.041-5.1091,0.1189l-0.1379,0.0001l81.373-185.3851l-1.7283-10.0479L841.7451,801.939
		l-5.2412,0.0046c29.8601-67.97,59.6201-135.99,89.45-203.97c0.5303-3.13-0.6699-6.4-1.5098-9.42
		c-30.9402,71.09-62.2202,142.04-93.0701,213.17c-1.96,0.11-3.9202,0.18-5.8701,0.27c-19.26-44.49-38.23-89.1-57.3999-133.63
		c-1.4001-3.17-2.5601-6.45-4.28-9.47c-8.1099,47.67-16.28,95.33-24.3398,143c-1.6902,0-3.3701,0.01-5.0303,0.04
		c8.3701-50.1,16.6501-100.22,25.0103-150.32c0.5598-3.87-1.8801-7.36-3.05-10.91c-9.2302,53.72-18.4299,107.44-27.5701,161.16
		c-1.5801,0.02-3.1499,0.05-4.72,0.09c9.3298-55.67,18.71-111.34,28.0701-167.02c0.96-3.96-2.0103-7.4-3.0801-11.03
		c-2.1299,9.13-3.21,18.48-4.9399,27.7c-8.4702,50.1-16.9702,100.19-25.4001,150.3c-1.7898-0.02-3.5598-0.02-5.3298-0.01
		c10.5598-62.05,20.9399-124.13,31.4399-186.19c0.1699-3.58-2.1001-6.78-3.53-9.93c-11,65.39-22.1199,130.76-33.3,196.13
		c-1.6201,0.01-3.23,0.03-4.8398,0.08c11.2197-68.1299,22.98-136.17,34.3098-204.27c-0.71-3.2-2.21-6.3-3.99-9.04
		c-11.7998,71.09-23.8501,142.14-35.7998,213.21c-1.7603,0-3.52,0-5.2603,0.02c12.5601-74.26,25.2002-148.51,37.6702-222.78
		c1.8098-0.01,3.6299-0.02,5.47-0.03c31.01,72.1,61.73,144.32,92.6099,216.48c1.0601-1.89,2.02-3.82,2.9102-5.78
		c-30.1401-70.17-59.99-140.46-90.1001-210.64c1.8301-0.04,3.6699-0.06,5.52-0.08c29.1699,67.9,58.1201,135.89,87.21,203.83
		c0.9702-2.04,1.9102-4.09,2.8601-6.13c-28.0701-65.87-56.0801-131.76-84.03-197.67c2-0.01,4.02,0,6.04-0.01
		c22.3101,52.28,44.3799,104.66,66.5898,156.99c4.6401,11.19,9.6101,22.24,14.05,33.51c1.4202-1.95,2.3201-4.2,3.3701-6.35
		c-26.28-61.41-52.8601-122.7-79.0701-184.14h5.8c25.1899,59.1299,50.7,118.11,75.77,177.29c0.8899-2.42,3.46-4.83,2.3298-7.52
		c-24.25-56.59-48.54-113.18-72.77-169.78c1.8701,0,3.7402,0.01,5.6201,0.03c23.3901,54.96,46.97,109.84,70.3999,164.78
		c24.1802-54.92,48.3101-109.87,72.48-164.81c1.7102,0,3.4302,0,5.1702-0.01c12.6699,74.27,25.1599,148.56,37.76,222.84
		c-1.79-0.03-3.5601-0.04-5.3201-0.03c-7.75-46.19-15.6399-92.35-23.5-138.51
		C916.7739,709.3936,896.6941,755.6235,876.4739,801.7836z M960.8333,869.625c-13.2317,0-23.9583-10.7265-23.9583-23.9583
		c0-13.2319,10.7266-23.9584,23.9583-23.9584c13.2319,0,23.9585,10.7265,23.9585,23.9584
		C984.7917,858.8985,974.0652,869.625,960.8333,869.625z M981.864,801.8835c-12.6299-74.25-25.0801-148.53-37.77-222.77
		c1.77-0.02,3.55-0.02,5.3398-0.03c12.5303,74.28,25.1301,148.55,37.6902,222.82
		C985.354,801.8835,983.604,801.8835,981.864,801.8835z M992.1641,801.9235c-12.3901-74.28-24.8901-148.55-37.4001-222.8199
		c1.6401,0,3.28,0,4.9399,0.0099c12.7202,74.25,25.1702,148.55,37.77,222.82C995.6941,801.9136,993.9241,801.9136,992.1641,801.9235
		z M1008.094,801.9335c-1.76-0.04-3.51-0.05-5.24-0.06c-12.5601-74.25-25.1599-148.5-37.6899-222.76
		c1.73-0.0099,3.47-0.0099,5.22-0.02C982.9841,653.3635,995.564,727.6436,1008.094,801.9335z"/>
</g>
</svg>
